<svg xmlns="http://www.w3.org/2000/svg" viewBox="0 0 173.53 132.94">
  <defs>
    <style>
      .cls-1 { fill: #00a8e8; stroke-width: 0px; }
    </style>
  </defs>
  <g>
    <path class="cls-1" d="m109.6,33.9h-53.6c5.42,9.63,8.52,20.75,8.52,32.59,0,36.06-28.72,65.42-64.53,66.45v-33.93c17.09-1.01,30.63-15.19,30.63-32.52S17.09,34.97,0,33.96v-.06L27.19,6.71l6.71-6.71h75.71v33.9Z"/>
    <path class="cls-1" d="m63.93,99.04h53.6c-5.42-9.63-8.52-20.75-8.52-32.59C109,30.39,137.72,1.03,173.53,0v33.93c-17.09,1.01-30.63,15.19-30.63,32.52s13.54,31.52,30.63,32.53v.06l-27.19,27.19-6.71,6.71H63.93v-33.9Z"/>
  </g>
</svg>
