<?xml version="1.0" encoding="UTF-8"?>
<svg id="Layer_2" data-name="Layer 2" xmlns="http://www.w3.org/2000/svg" viewBox="0 0 781.62 132.94">
  <defs>
    <style>
      .cls-1 {
        fill: #00a8e8;
      }

      .cls-1, .cls-2 {
        stroke-width: 0px;
      }

      .cls-2 {
        fill: currentColor;
      }
    </style>
  </defs>
  <g id="Layer_1-2" data-name="Layer 1">
    <g>
      <g>
        <path class="cls-2" d="m264.8,118.22c-7.59,0-14.18-1.39-19.76-4.15-5.58-2.77-9.98-6.61-13.2-11.52-3.22-4.91-5.09-10.63-5.63-17.15l14.87-.94c.89,6.61,3.33,11.7,7.3,15.28,3.97,3.57,9.53,5.36,16.68,5.36,6.16,0,10.94-1.16,14.34-3.48,3.39-2.32,5.09-5.72,5.09-10.18,0-2.68-.65-5.07-1.94-7.17-1.3-2.1-3.75-4.02-7.37-5.76s-8.91-3.46-15.88-5.16c-7.59-1.79-13.67-3.82-18.22-6.1s-7.84-5.09-9.85-8.44c-2.01-3.35-3.01-7.48-3.01-12.4,0-5.45,1.32-10.25,3.95-14.4,2.63-4.15,6.41-7.39,11.32-9.71,4.91-2.32,10.81-3.48,17.69-3.48,7.24,0,13.44,1.34,18.62,4.02,5.18,2.68,9.25,6.34,12.19,10.99,2.95,4.65,4.78,9.96,5.49,15.95l-14.87.8c-.72-5.45-2.88-9.92-6.5-13.4-3.62-3.48-8.69-5.23-15.21-5.23-5.54,0-9.89,1.27-13.06,3.82-3.17,2.55-4.76,5.92-4.76,10.12,0,2.77.65,5.05,1.94,6.83,1.29,1.79,3.62,3.37,6.97,4.76,3.35,1.39,8.11,2.79,14.27,4.22,8.22,1.88,14.74,4.18,19.56,6.9,4.82,2.73,8.29,5.92,10.38,9.58,2.1,3.66,3.15,7.82,3.15,12.46,0,5.63-1.45,10.52-4.36,14.67-2.9,4.15-6.95,7.35-12.13,9.58-5.18,2.23-11.21,3.35-18.09,3.35Z"/>
        <path class="cls-2" d="m336.08,116.08c-6.79,0-11.79-1.54-15.01-4.62s-4.82-7.97-4.82-14.67v-40.33h-10.85v-11.66h10.85v-16.75h14.2v16.75h18.89v11.66h-18.89v39.26c0,3.31.71,5.58,2.14,6.83,1.43,1.25,3.62,1.88,6.57,1.88h10.18v11.66h-13.27Z"/>
        <path class="cls-2" d="m386.2,117.69c-6.79,0-12.73-1.54-17.82-4.62s-9.02-7.39-11.79-12.93c-2.77-5.54-4.15-12.1-4.15-19.7s1.38-14.16,4.15-19.7c2.77-5.54,6.7-9.85,11.79-12.93,5.09-3.08,11.03-4.62,17.82-4.62s12.73,1.54,17.82,4.62c5.09,3.08,9.02,7.39,11.79,12.93,2.77,5.54,4.15,12.11,4.15,19.7s-1.38,14.16-4.15,19.7c-2.77,5.54-6.7,9.85-11.79,12.93s-11.03,4.62-17.82,4.62Zm0-12.33c6.07,0,10.76-2.19,14.07-6.57,3.3-4.38,4.96-10.5,4.96-18.36s-1.65-13.87-4.96-18.29-7.99-6.63-14.07-6.63-10.65,2.21-14,6.63c-3.35,4.42-5.03,10.52-5.03,18.29s1.67,13.98,5.03,18.36c3.35,4.38,8.02,6.57,14,6.57Z"/>
        <path class="cls-2" d="m429.48,116.08V44.79h13l.4,13.53c1.34-4.64,3.42-8.06,6.23-10.25,2.81-2.19,6.41-3.28,10.79-3.28h6.83v12.73h-6.83c-5.45,0-9.51,1.34-12.19,4.02-2.68,2.68-4.02,6.83-4.02,12.46v42.08h-14.2Z"/>
        <path class="cls-2" d="m472.63,116.08V44.79h13l.27,12.19c1.79-4.29,4.42-7.66,7.9-10.12,3.48-2.46,7.46-3.69,11.93-3.69,5.27,0,9.71,1.3,13.33,3.89,3.62,2.59,6.18,6.21,7.7,10.85,1.61-4.73,4.18-8.38,7.71-10.92,3.53-2.55,7.84-3.82,12.93-3.82,7.5,0,13.31,2.35,17.42,7.03,4.11,4.69,6.16,11.37,6.16,20.03v45.83h-14.2v-42.34c0-12.42-4.51-18.63-13.53-18.63-4.47,0-8.04,1.7-10.72,5.09-2.68,3.4-4.02,8.09-4.02,14.07v41.81h-13.53v-41.81c0-5.98-1.01-10.67-3.02-14.07-2.01-3.39-5.43-5.09-10.25-5.09-4.56,0-8.17,1.7-10.85,5.09-2.68,3.4-4.02,8.09-4.02,14.07v41.81h-14.2Z"/>
        <path class="cls-2" d="m615.6,116.08V20.94h14.47v95.14h-14.47Z"/>
        <path class="cls-2" d="m647.62,116.08V44.79h13l.27,12.46c1.88-4.91,4.73-8.49,8.57-10.72,3.84-2.23,8.22-3.35,13.13-3.35,5.27,0,9.69,1.19,13.27,3.55,3.57,2.37,6.27,5.58,8.11,9.65,1.83,4.07,2.75,8.69,2.75,13.87v45.83h-14.2v-41.54c0-6.25-1.05-11.05-3.15-14.4-2.1-3.35-5.65-5.02-10.65-5.02s-9.18,1.67-12.26,5.02c-3.08,3.35-4.62,8.15-4.62,14.4v41.54h-14.2Z"/>
        <path class="cls-2" d="m749.73,117.69c-6.79,0-12.73-1.54-17.82-4.62-5.09-3.08-9.02-7.41-11.79-13-2.77-5.58-4.15-12.13-4.15-19.63s1.38-14.05,4.15-19.63c2.77-5.58,6.7-9.92,11.79-13,5.09-3.08,11.03-4.62,17.82-4.62,8.66,0,15.86,2.26,21.57,6.77,5.72,4.51,9.16,10.88,10.32,19.09l-14.87.8c-.72-4.64-2.59-8.19-5.63-10.65-3.04-2.46-6.83-3.69-11.39-3.69-5.99,0-10.65,2.21-14,6.63-3.35,4.42-5.03,10.52-5.03,18.29s1.67,13.98,5.03,18.36c3.35,4.38,8.02,6.57,14,6.57,4.55,0,8.35-1.27,11.39-3.82s4.91-6.41,5.63-11.59l14.87.8c-1.16,8.22-4.58,14.76-10.25,19.63-5.67,4.87-12.89,7.3-21.64,7.3Z"/>
      </g>
      <g>
        <path class="cls-1" d="m109.6,33.9h-53.6c5.42,9.63,8.52,20.75,8.52,32.59,0,36.06-28.72,65.42-64.53,66.45v-33.93c17.09-1.01,30.63-15.19,30.63-32.52S17.09,34.97,0,33.96v-.06L27.19,6.71l6.71-6.71h75.71v33.9Z"/>
        <path class="cls-1" d="m63.93,99.04h53.6c-5.42-9.63-8.52-20.75-8.52-32.59C109,30.39,137.72,1.03,173.53,0v33.93c-17.09,1.01-30.63,15.19-30.63,32.52s13.54,31.52,30.63,32.53v.06l-27.19,27.19-6.71,6.71H63.93v-33.9Z"/>
      </g>
    </g>
  </g>
</svg>